<?xml version="1.0" encoding="UTF-8" standalone="no"?>

<svg xmlns:svg="http://www.w3.org/2000/svg"
	xmlns="http://www.w3.org/2000/svg"
	xmlns:xlink="http://www.w3.org/1999/xlink"
	version="1.1">
	
	<g class="ribbon">
		<path 
			style="fill: #ffc103; stroke: #000; stroke-width: .25; stroke-linecap:butt; stroke-linejoin:miter;"
			d="m1,1 h28 v30 l-14,7 l-14,-7 z m0,32 l14,7 l14,-7 v7 l-14,7 l-14,-7 z" />
	</g>

	<g class="atlas" transform="translate(-4.0091249,-0.48080879)">
		<!-- silhouette -->
		<path 
			style="fill: #000; stroke: none; fill-rule:evenodd;" 
			d="m 19.436441,5.8839019 c 0.536045,-0.238198 3.228509,0.102853 2.317384,2.8400498 3.374948,-0.7348628 2.314327,3.5687953 1.536256,3.2327163 -0.464165,0.655337 -0.409488,1.228852 -0.409488,1.228852 3.195245,-0.02715 4.943321,0.983006 4.943321,0.983006 0.272993,0.764687 5.379957,2.51238 5.379957,2.51238 l -0.02715,0.546369 c -4.61565,-1.856661 -5.571511,-1.911337 -5.571511,-1.911337 -0.0432,1.638726 -0.477163,2.527675 -1.369172,2.276093 -0.658013,-0.18582 -1.368789,-0.60678 -1.498405,-0.856068 -0.658012,-0.08832 -1.338202,-0.05468 -1.338202,-0.05468 l -0.16402,-0.437017 h -0.300523 c -0.193465,0.994858 -0.869068,0.799863 -0.869068,0.799863 l 0.147969,1.468964 -0.154469,1.023534 0.05812,2.490969 -0.135349,0.7146 0.17129,0.836185 0.619397,0.457665 c 0.08335,-0.765069 0.459195,-0.456517 0.743658,-0.48481 0.508135,0.40949 1.016269,0.87289 1.524404,0.932918 0.263435,0.168231 0.562428,0.32958 0.727217,0.610602 l 1.735077,0.297847 2.300179,-0.04358 1.831588,0.06888 1.205319,0.134077 0.361739,0.376292 -28.3674348,-0.02713 1.0408768,-0.788054 2.8783547,-0.420559 1.3718483,0.05468 0.76163,-0.371639 0.64769,0.35558 1.622283,-0.313903 c 1.010153,-0.349081 1.123708,-0.615192 1.313351,-1.88725 0.290199,-0.877479 0.191937,-1.88419 0.193084,-2.858018 0.243554,0.138408 0.258464,-0.794893 0.2577,-1.168443 -0.0016,-0.633925 0.321933,-1.538168 0.4569,-2.182418 l -0.830451,-0.820891 0.386168,-1.158501 -0.03861,-2.201534 c 0.570839,-0.437785 0.364755,-0.875567 -0.07723,-1.31335 l -0.816159,0.221283 0.05073,4.059677 0.290289,0.430597 -0.772769,0.572337 c -0.600608,-0.287821 -1.215126,0.793323 -2.240192,0.588903 -0.44696,-0.361315 -0.256579,-0.722247 -0.373959,-1.083562 0,0 -0.193084,-0.03861 -0.695101,-0.193084 l 0.34755,-1.119885 0.695102,-2.703551 c 0.455371,0.228258 0.303199,-1.179913 1.622284,-2.3946171 -0.251201,-2.575468 0.797568,-3.283186 1.853984,-3.514504 0.502017,-0.03937 1.004034,-0.152173 1.506434,0 0.526868,0.412931 0.991416,0.888184 1.313349,1.506433 0.264966,-0.07609 0.244701,-0.246611 0.324611,-0.334931 0,0 -0.771952,-0.791452 -0.854538,-0.902714 -0.07494,-0.101321 0.04167,-0.04894 0.04167,-0.04894 0.276817,0.256171 0.916095,0.847656 0.93483,0.804452 0.144907,-0.333403 0.273758,-1.153148 0.326138,-1.5259337 l 0.617868,0.077232 0.2317,0.3089347 M 18.220696,17.770773 c 0.30331,-0.06558 0.585052,-0.102361 1.396386,-0.09013 l 0.0044,2.272862 c -0.439424,0.02555 -0.127007,1.810534 -0.314533,3.406789 l -0.267158,1.015992 c -0.40428,0.104499 -1.134248,0.177019 -1.757201,-0.234652 L 17.25971,22.01024 c 0.484046,0.132997 0.2008,-2.089724 0.35664,-3.116976 z" />
		<!-- highlights -->
		<path 
			style="fill: #ccc; stroke: none;" 
			d="m 21.777365,7.4870929 c -0.66,-0.5 -1.147641,-0.256202 -1.265021,-0.617519 0,0 -0.07263,-0.850931 -0.574648,-1.005405 l 0.967819,0.195245 0.594877,0.470275 z m -0.751971,1.4709578 -0.05348,-0.205069 -0.230654,-0.4235858 0.23591,-0.624386 0.519393,0.0075 c 0.116652,0.0936 0.201498,0.220161 0.276278,0.337277 l 0.01141,0.174745 h -0.250565 l -0.04176,-0.250565 -0.275621,-0.0167 0.01814,0.569902 c 0,0 0.543862,0.06783 0.552215,-0.02404 0.0084,-0.09187 -0.02113,0.4983958 -0.02113,0.4983958 z m 1.983171,-0.201945 c 0.818303,-0.05078 0.979165,0.8845982 1.097965,1.8830703 -0.185608,0.203026 -0.394452,0.27825 -0.668673,-0.0061 0.08934,0.196705 0.364721,0.914269 -0.116931,0.751695 -0.732764,-0.77889 -0.404717,-0.315795 -0.501131,0.03341 -0.284499,0.08024 -0.534115,0.291369 -0.534538,0.7684 l -0.567948,0.0167 c 0.286272,-0.519513 0.590104,-1.179513 0.835217,-1.369756 l -0.484428,-0.751696 -0.08352,1.302939 -0.534539,0.03341 c -0.528972,-0.34037 -1.057943,-0.748423 -1.586914,-0.618055 l 0.133638,-0.65147 c 0.182757,0.316078 0.514774,0.323152 1.186008,0.283975 0.662688,-0.171083 0.624327,-0.7579291 0.581908,-1.2940451 0.320324,-0.120723 0.544496,0.09508 0.808729,0.170672 0.265813,0.16086 0.256061,0.668263 0.396728,0.9855561 0.554583,-0.4980601 0.272317,-1.0190481 0.03843,-1.5387103 z m -3.946747,0.7471742 -0.472243,-1.090304 -1.140226,-0.870251 c 0,0 -1.177657,-1.41987 -1.211065,-1.436574 -0.03341,-0.0167 -0.551244,-0.158691 -0.551244,-0.158691 l 0.342439,0.50113 0.217157,0.1921 -0.492778,0.417609 0.843569,0.06682 0.342439,0.08352 0.342439,0.534539 0.04176,0.7684 -0.50113,0.910387 0.409256,0.42596 0.325735,-0.375847 0.11693,-0.9103872 0.851922,0.5345392 0.108578,0.434313 z m -0.573657,-3.15675 0.656488,0.03235 c -0.0082,-0.08898 0.0085,-0.414718 0.0085,-0.414718 l 0.208847,-0.233859 C 19.128933,5.5461299 18.898254,5.3357407 18.643709,5.387864 c 0.136639,0.3733569 0.161927,0.6285589 -0.155548,0.9586659 z m 8.60876,8.0508401 6.096152,2.505252 -0.0076,0.139715 -6.029029,-2.214612 c -0.153429,-0.232507 -0.100531,-0.327462 -0.05954,-0.430355 z" />
	</g>
</svg>